# xmcd CD database file
#
# Track frame offsets:
#	150
#	23813
#	40928
#	63815
#	79978
#	102797
#	128607
#	144483
#	165702
#	180913
#	198997
#	228587
#	248853
#	271243
#	290647
#	307898
#
# Disc length: 4362 seconds
#
# Revision: 0
# Processed by: cddbd v1.5.2PL0 Copyright (c) Steve Scherf et al.
# Submitted via: CDex 1.81
#
DISCID=d3110810
DTITLE=Stefano Bollani - Que Bom
DYEAR=2018
DGENRE=Jazz
TTITLE0=Stefano Bollani - Sbucata da una nuvola
TTITLE1=Stefano Bollani - Galapagos
TTITLE2=Stefano Bollani - Certe giornate al mare
TTITLE3=Stefano Bollani - La nebbia a Napoli
TTITLE4=Stefano Bollani - Habarossa
TTITLE5=Stefano Bollani - Uomini e polli
TTITLE6=Stefano Bollani - Ho perduto il mio pappagallino
TTITLE7=Stefano Bollani - Criatura dourada
TTITLE8=Stefano Bollani - Michelangelo Antonioni
TTITLE9=Stefano Bollani - Accettare tutto
TTITLE10=Stefano Bollani - Ravaskia
TTITLE11=Stefano Bollani - Olha a brita
TTITLE12=Stefano Bollani - Il gabbiano ischitano
TTITLE13=Stefano Bollani - Aleijadinho le o Codex Seraphinianus aqui
TTITLE14=Stefano Bollani - Nacao
TTITLE15=Stefano Bollani - Que bom
EXTD=YEAR: 2018
EXTT0=
EXTT1=
EXTT2=
EXTT3=
EXTT4=
EXTT5=
EXTT6=
EXTT7=
EXTT8=
EXTT9=
EXTT10=
EXTT11=
EXTT12=
EXTT13=
EXTT14=
EXTT15=
PLAYORDER=
